<?xml version="1.0" encoding="UTF-8" standalone="no"?>
<svg width="18px" height="18px" viewBox="0 0 18 18" version="1.1" xmlns="http://www.w3.org/2000/svg" xmlns:xlink="http://www.w3.org/1999/xlink" xmlns:sketch="http://www.bohemiancoding.com/sketch/ns">
    <!-- Generator: Sketch 3.2.2 (9983) - http://www.bohemiancoding.com/sketch -->
    <title>Fill 4</title>
    <desc>Created with Sketch.</desc>
    <defs></defs>
    <g id="Page-1" stroke="none" stroke-width="1" fill="none" fill-rule="evenodd" sketch:type="MSPage">
        <g id="Landing" sketch:type="MSArtboardGroup" transform="translate(-1318.000000, -44.000000)" fill="#FFFFFF">
            <g id="Group" sketch:type="MSLayerGroup" transform="translate(102.000000, 44.000000)">
                <path d="M1231.97489,14.849775 C1231.97489,15.45975 1231.45997,15.975225 1230.84977,15.975225 L1228.00015,15.975225 C1222.00019,15.975225 1218.02511,12.00015 1218.02511,6.0001875 L1218.02511,3.150225 C1218.02511,2.5405875 1218.54059,2.0251125 1219.15023,2.0251125 L1230.84977,2.0251125 C1231.45997,2.0251125 1231.97489,2.5405875 1231.97489,3.150225 L1231.97489,14.849775 L1231.97489,14.849775 Z M1219.15023,0 C1217.41767,0 1216,1.41766875 1216,3.150225 L1216,14.849775 C1216,16.5823312 1217.41767,18 1219.15023,18 L1230.84977,18 C1232.58233,18 1234,16.5823312 1234,14.849775 L1234,3.150225 C1234,1.41766875 1232.58233,0 1230.84977,0 L1219.15023,0 Z" id="Fill-4" sketch:type="MSShapeGroup"></path>
            </g>
        </g>
    </g>
</svg>